<svg width="520" height="520" xmlns="http://www.w3.org/2000/svg" fill="#000000" version="1.1" xml:space="preserve">
 <g>
  <title>Layer 1</title>
  <ellipse fill="#ffffff" cx="260" cy="260" id="svg_9" rx="240" ry="240" stroke="#ff0000" stroke-width="35"/>
  <g stroke="null">
   <g stroke="null">
    <path stroke="null" d="m347.59888,298.53472l-2.34375,0l0,-9.72535c0,-6.2804 -5.17859,-9.40205 -9.26518,-10.56143l-6.43489,-13.02085c-0.55462,-1.12129 -1.58035,-1.88314 -2.75132,-2.04235l-47.33259,-6.42594l-43.55825,-74.26408c-0.66536,-1.13399 -1.82453,-1.82161 -3.07084,-1.82161l-103.79419,0c-1.48958,0 -2.82667,0.97869 -3.37584,2.46821l-25.52804,69.35013l-24.77917,0c-10.99531,0 -17.30221,6.78538 -17.30221,18.61754l0,27.48825c-5.37012,0.60558 -9.57018,5.50683 -9.57018,11.4444l0,10.10334c0,6.34487 4.79734,11.50691 10.69395,11.50691l32.29153,0c1.96886,18.71326 16.76211,33.3047 34.66978,33.3047s32.70182,-14.59144 34.67068,-33.3047l85.14673,0c1.96886,18.71326 16.7612,33.3047 34.66796,33.3047c17.90948,0 32.70454,-14.59144 34.67341,-33.3047l32.29062,0c5.8957,0 10.69213,-5.16302 10.69213,-11.50789l0,-10.10237c0.00182,-6.34487 -4.79462,-11.50691 -10.69032,-11.50691zm-221.45031,48.84162c-10.23373,0 -18.56032,-8.95959 -18.56032,-19.97325c0,-11.01269 8.32659,-19.97325 18.56032,-19.97325c10.23464,0 18.56123,8.95959 18.56123,19.97325c0,11.01269 -8.32659,19.97325 -18.56123,19.97325zm154.48537,0c-10.23282,0 -18.55851,-8.95959 -18.55851,-19.97325c0,-11.01269 8.32568,-19.97325 18.55851,-19.97325c10.23554,0 18.56395,8.95959 18.56395,19.97227c0,11.01366 -8.3275,19.97423 -18.56395,19.97423z"/>
    <path stroke="null" d="m343.64119,203.09894c0.728,0.10744 1.4678,0.16214 2.20033,0.16214l0.00091,0c7.98801,0 14.83319,-6.42985 15.92155,-14.95772l1.99791,-15.67073c0.34857,-2.72314 -0.31044,-5.42869 -1.8554,-7.61755c-1.24268,-1.76203 -2.93922,-3.02006 -4.86996,-3.63736c-2.2557,-3.1783 -5.56528,-5.26851 -9.29968,-5.82036c-0.64176,-0.09474 -1.29351,-0.1426 -1.93709,-0.1426c-7.02128,0 -13.03679,5.65041 -13.99263,13.1449l-1.91803,15.04074c-1.20456,9.45382 4.96437,18.20145 13.75208,19.49856z"/>
    <path stroke="null" d="m465.44652,245.53612l-31.50997,-15.06125c-0.5401,-0.31451 -1.11015,-0.56553 -1.69564,-0.77162c-0.13707,-0.04981 -0.27323,-0.10744 -0.41211,-0.13967c-0.8932,-0.26958 -1.82272,-0.42586 -2.77402,-0.42586c-2.08142,0 -4.08932,0.67199 -5.80765,1.94468c-0.02723,0.02051 -0.05537,0.04102 -0.0826,0.06251l-14.28855,11.21975l-20.8015,-25.68324l11.15417,-1.09004c2.36554,-0.13772 4.54772,-1.24631 6.15077,-3.12848c0.23238,-0.27349 14.77691,-20.5505 14.77691,-20.5505c1.48414,-2.06872 2.13135,-4.63558 1.82181,-7.22784c-0.30954,-2.59225 -1.5386,-4.90028 -3.46026,-6.49529c-1.60668,-1.3352 -3.52834,-2.04138 -5.5553,-2.04138c-2.84119,0 -5.46634,1.38696 -7.20101,3.80438l-11.81862,16.4697c0,0 -27.51869,2.73193 -27.76922,2.81886c-1.84178,0.43074 -3.5701,1.34399 -5.01066,2.69481l-9.43039,8.84336c-1.74375,1.63505 -2.94739,3.76141 -3.50746,6.1251c-0.15341,0.36628 -4.21367,40.29617 -4.2164,40.37236c-0.10802,2.41351 0.54191,4.73912 1.83452,6.6711c0.13162,0.25297 15.61747,18.79238 15.61747,18.79238c0.05809,0.07032 0.12073,0.13967 0.18427,0.20511c1.83815,1.89389 4.25271,2.93704 6.79616,2.93704c2.66781,0 5.25393,-1.18869 7.09299,-3.25643l0.18245,-0.20414c3.71079,-4.17066 3.61004,-10.79292 -0.19879,-14.83758l-11.21226,-13.37345l0.83783,-8.39504l36.46163,46.48672l-8.3275,23.67019c-1.09926,2.63328 -1.20002,5.57032 -0.2814,8.28857c0.93587,2.77002 2.81759,4.98232 5.28026,6.21789l0.2696,0.13674c1.36885,0.68762 2.82485,1.03534 4.32714,1.03534c3.97131,0 7.62129,-2.50142 9.29786,-6.37319c0.03812,-0.08791 11.08699,-31.48114 11.08699,-31.48114c0.23147,-0.83315 0.25961,-1.33617 0.31498,-1.6624c0.48836,-2.9009 -0.06808,-5.83208 -1.61485,-8.26415c-0.06445,-0.10256 -11.30939,-14.61 -11.30939,-14.61l19.75308,-16.00868l26.52745,12.67997c1.33618,0.64758 2.75132,0.97576 4.20914,0.97576c4.02668,0 7.69754,-2.55416 9.3378,-6.4738l0.1289,-0.30181c2.32015,-5.5459 0.01271,-12.09002 -5.15862,-14.59535z"/>
    <path stroke="null" d="m287.14327,238.0934l32.22436,14.65102c0.69169,0.31451 1.41061,0.46395 2.11682,0.46395c2.12318,0 4.14196,-1.34496 5.01974,-3.58071c1.17006,-2.98197 -0.12708,-6.42008 -2.89747,-7.67909l-32.22436,-14.65102c-2.76948,-1.25999 -5.96559,0.13674 -7.13656,3.11676c-1.17006,2.98197 0.12617,6.42008 2.89747,7.67909z"/>
    <path stroke="null" d="m319.28865,229.34576c0.93133,2.11463 2.88658,3.35118 4.92533,3.35118c0.78155,0 1.57582,-0.18265 2.32923,-0.56651c2.71774,-1.38599 3.87691,-4.88074 2.58884,-7.80606l-29.04731,-65.9296c-1.28897,-2.92532 -4.53683,-4.17163 -7.25456,-2.78467c-2.71774,1.38599 -3.87691,4.88074 -2.58884,7.80606l29.04731,65.9296z"/>
    <path stroke="null" d="m429.05751,206.32412c1.06567,0 2.14224,-0.336 3.08628,-1.03534l33.58595,-24.90674c2.47719,-1.83626 3.09989,-5.48632 1.39336,-8.15085c-1.70744,-2.66551 -5.09871,-3.33653 -7.5759,-1.50026l-33.58595,24.90674c-2.47719,1.83626 -3.09989,5.48632 -1.39336,8.15085c1.0575,1.64971 2.75949,2.5356 4.48962,2.5356z"/>
    <path stroke="null" d="m444.68769,210.84152c-2.94558,-0.65832 -5.82852,1.37427 -6.44306,4.54182c-0.61362,3.16853 1.27627,6.27259 4.22094,6.93286l21.78548,4.88367c0.37489,0.084 0.74797,0.12405 1.1156,0.12405c2.5253,0 4.79099,-1.90073 5.32655,-4.66586c0.61362,-3.16853 -1.27627,-6.27259 -4.22094,-6.93286l-21.78457,-4.88367z"/>
   </g>
  </g>
 </g>

</svg>