<svg width="520" height="520" xmlns="http://www.w3.org/2000/svg" fill="#000000" version="1.1" xml:space="preserve">
 <g>
  <title>Layer 1</title>
  <ellipse fill="#ffffff" cx="260" cy="260" id="svg_9" rx="240" ry="240" stroke="#ff7f00" stroke-width="35"/>
  <g stroke="null">
   <g stroke="null">
    <path stroke="null" d="m312.74545,199.44774l11.31452,0c3.03176,0 5.49672,2.21467 5.49672,4.93752l0,10.75949c0,5.11159 2.21435,9.91635 6.23483,13.52718c4.0195,3.60994 9.36644,5.59866 15.05601,5.59866c0.00196,0 0.00392,0 0.00489,0c3.58682,0 6.50502,2.62174 6.50502,5.84396l0,15.27412c0,7.01679 6.3572,12.72624 14.17105,12.72624c7.8119,0 14.16812,-5.70856 14.16812,-12.72536l0,-2.47491c0,-4.38714 3.97545,-7.95664 8.86131,-7.95664c20.08186,0 36.41831,-14.67276 36.41831,-32.70752l0,-13.20891c0,-7.8274 -7.09042,-14.19536 -15.80587,-14.19536c-4.39639,0 -7.97342,-3.21167 -7.97342,-7.1601l0,-13.46563c0,-11.94903 -10.82506,-21.67021 -24.12975,-21.67109c-7.57695,-0.00088 -13.7413,-5.538 -13.7413,-12.34203c0,-11.99387 -10.86715,-21.75285 -24.22373,-21.75285c-13.35364,0 -24.21688,9.7581 -24.21688,21.75285l0,38.17167c0,3.78138 -3.42627,6.85678 -7.63765,6.85678c-6.61564,0 -11.99684,4.83289 -11.99684,10.77356l0.00098,3.1132c-0.00098,5.69274 5.15507,10.32518 11.49367,10.32518z"/>
    <path stroke="null" d="m433.47252,334.1744l-3.2716,0l0,-10.17044c0,-6.142 -6.19959,-9.16377 -10.99833,-10.2566l-7.83343,-13.23089c-0.59813,-1.00931 -1.70432,-1.69507 -2.96715,-1.83838l-42.2929,-4.79245l32.80115,-15.77702c2.85947,-1.37505 3.93629,-4.57265 2.40426,-7.14076c-1.53007,-2.56899 -5.08948,-3.53521 -7.9509,-2.16016l-43.75934,21.04774l-50.86445,-72.38085c-0.71756,-1.02074 -1.96766,-1.63968 -3.31173,-1.63968l-124.85915,0c-1.60643,0 -3.04938,0.88007 -3.64066,2.22171l-30.82175,69.88747l-30.11496,0c-13.13045,0 -20.36183,6.49456 -20.36183,18.28709l0,27.97046c-6.42572,0.41586 -11.51227,5.24435 -11.51227,11.11996l0,10.14406c0,6.14728 5.56818,11.14809 12.41289,11.14809l39.81228,0c2.15561,18.47964 19.60218,32.93172 40.73835,32.93172c21.13715,0 38.58372,-14.45296 40.73933,-32.93172l104.36223,0c2.15561,18.47964 19.6012,32.93172 40.73541,32.93172c21.13911,0 38.58763,-14.45296 40.74325,-32.93172l39.81032,0c6.84275,0 12.41093,-5.0017 12.41093,-11.14897l0,-10.14318c0.00098,-6.1464 -5.5672,-11.14722 -12.40995,-11.14722zm-266.39152,49.54572c-12.87201,0 -23.34465,-9.40555 -23.34465,-20.96774c0,-11.56131 10.47264,-20.96686 23.34465,-20.96686c12.87201,0 23.34563,9.40555 23.34563,20.96686c0,11.56219 -10.47362,20.96774 -23.34563,20.96774zm185.83795,0c-12.87005,0 -23.34171,-9.40555 -23.34171,-20.96774c0,-11.56131 10.47068,-20.96686 23.34171,-20.96686c12.87396,0 23.34954,9.40555 23.34954,20.96686c-0.00098,11.56219 -10.47558,20.96774 -23.34954,20.96774z"/>
   </g>
  </g>
 </g>

</svg>