<svg width="520" height="520" xmlns="http://www.w3.org/2000/svg" fill="#000000" version="1.1" xml:space="preserve">
 <g>
  <title>Layer 1</title>
  <ellipse fill="#ffffff" cx="260" cy="260" id="svg_9" rx="240" ry="240" stroke="#0000ff" stroke-width="35"/>
  <g stroke="null" id="svg_1">
   <path stroke="null" d="m304.30622,203.98763c-2.51183,-1.69924 -5.80043,-0.83836 -7.34418,1.92548l-40.54427,72.52073c-1.54553,2.76383 -0.76254,6.38365 1.7484,8.08485c0.87198,0.59057 1.83827,0.87263 2.793,0.87263c1.79289,0 3.54307,-0.99408 4.55208,-2.79713l40.54427,-72.52073c1.54465,-2.76481 0.76165,-6.38463 -1.74929,-8.08583z" id="svg_2"/>
   <path stroke="null" d="m244.03214,259.48366c1.03747,1.64145 2.69868,2.52094 4.38747,2.52094c1.05171,0 2.11499,-0.34279 3.04391,-1.05284c2.42018,-1.85398 3.01811,-5.51591 1.33377,-8.17985l-30.40798,-48.11439c-1.68345,-2.66296 -5.01031,-3.32012 -7.43138,-1.4681c-2.42018,1.85398 -3.01811,5.51591 -1.33377,8.18083l30.40798,48.11341z" id="svg_3"/>
   <path stroke="null" d="m260.339,241.98298c0.46268,0.13613 0.92536,0.20077 1.38271,0.20077c2.3579,0 4.51649,-1.73352 5.15445,-4.36023l17.10499,-70.42778c0.76165,-3.13502 -0.92981,-6.35623 -3.77886,-7.19556c-2.85083,-0.8364 -5.77551,1.02444 -6.53627,4.15946l-17.10499,70.42778c-0.76254,3.13502 0.92981,6.35623 3.77797,7.19556z" id="svg_4"/>
   <path stroke="null" d="m290.23536,264.2572c0.91647,2.1096 2.8277,3.34167 4.8199,3.34167c0.77232,0 1.55621,-0.1851 2.29917,-0.57588l14.57003,-7.66959c2.66042,-1.40052 3.78509,-4.90869 2.51361,-7.83706c-1.27148,-2.92739 -4.45954,-4.16534 -7.11907,-2.76579l-14.57003,7.66959c-2.66042,1.40052 -3.78509,4.90869 -2.51361,7.83706z" id="svg_5"/>
   <path stroke="null" d="m243.51874,216.49343c0.63708,2.62966 2.79478,4.36415 5.15445,4.36415c0.45556,0 0.91825,-0.06464 1.37915,-0.1998c2.84905,-0.83738 4.54229,-4.05662 3.78242,-7.19262l-10.1354,-41.83945c-0.75987,-3.13502 -3.68455,-4.99782 -6.5336,-4.16436c-2.84905,0.8364 -4.54229,4.05662 -3.78242,7.19262l10.1354,41.83945z" id="svg_6"/>
   <path stroke="null" d="m254.48519,301.28981l-0.35858,0l0,-5.22601c0,-4.72457 -3.48524,-7.17108 -6.44818,-8.17789l-3.98529,-8.24938c-0.54276,-1.12434 -1.54909,-1.88826 -2.6969,-2.0479l-30.48361,-4.23487l-28.2654,-49.29553c-0.6522,-1.13707 -1.78844,-1.82656 -3.0101,-1.82656l-79.14883,0c-1.46012,0 -2.77164,0.98135 -3.30906,2.47491l-16.44478,45.69824l-15.44734,0c-7.95902,0 -12.52355,5.02426 -12.52355,13.78488l0,17.3479c-3.59557,0.95294 -6.27557,4.52281 -6.27557,8.76846l0,6.77736c0,4.97137 3.67476,9.01527 8.19125,9.01527l18.6523,0c1.82759,13.53906 12.45504,23.9617 25.2553,23.9617c12.80116,0 23.42949,-10.42265 25.25708,-23.9617l61.87567,0.00098c1.82759,13.53906 12.45504,23.96072 25.25441,23.96072c12.80116,0 23.42949,-10.42167 25.25708,-23.96072l18.65319,0c4.51649,0 8.19036,-4.04487 8.19036,-9.01624l0,-6.77736c0.00089,-4.97235 -3.67298,-9.01624 -8.18947,-9.01624zm-156.29834,31.14062c-5.24877,0 -9.51879,-4.70106 -9.51879,-10.47945c0,-5.77839 4.27002,-10.47945 9.51879,-10.47945c5.24966,0 9.52057,4.70106 9.52057,10.47945c0,5.77937 -4.27091,10.47945 -9.52057,10.47945zm112.38806,0c-5.24877,0 -9.51879,-4.70106 -9.51879,-10.47945c0,-5.77839 4.27002,-10.47945 9.51879,-10.47945c5.24966,0 9.52146,4.70106 9.52146,10.47945c-0.00089,5.77937 -4.2718,10.47945 -9.52146,10.47945z" id="svg_7"/>
   <path stroke="null" d="m467.63732,301.5376l0,-17.3479c0,-8.76062 -4.56453,-13.78488 -12.52444,-13.78488l-15.44734,0l-16.44478,-45.69824c-0.53742,-1.49357 -1.84895,-2.47491 -3.30906,-2.47491l-68.06137,0c-1.22166,0 -2.3579,0.68949 -3.0101,1.82656l-28.2654,49.29553l-30.48361,4.23487c-1.14781,0.15964 -2.15325,0.92258 -2.6969,2.0479l-3.98529,8.24938c-2.96383,1.00583 -6.44818,3.45234 -6.44818,8.17789l0,5.22601l-0.35858,0c-4.51649,0 -8.19125,4.04487 -8.19125,9.01624l0,6.77736c0,4.97137 3.67387,9.01624 8.19125,9.01624l18.65319,0c1.82759,13.53906 12.45593,23.96072 25.25708,23.96072c12.79938,0 23.42771,-10.42167 25.25441,-23.96072l50.78911,-0.00098c1.82759,13.53906 12.45593,23.9617 25.25708,23.9617c12.80027,0 23.42771,-10.42265 25.2553,-23.9617l18.6523,0c4.51649,0 8.19125,-4.04389 8.19125,-9.01527l0,-6.77736c0.00089,-4.24565 -2.67822,-7.81552 -6.27468,-8.76846zm-147.12389,30.89283c-5.24966,0 -9.52146,-4.70106 -9.52146,-10.47945c0,-5.77839 4.27091,-10.47945 9.52146,-10.47945c5.24877,0 9.51879,4.70106 9.51879,10.47945c0.00089,5.77937 -4.27002,10.47945 -9.51879,10.47945zm101.30061,0c-5.24966,0 -9.52057,-4.70106 -9.52057,-10.47945c0,-5.77839 4.27091,-10.47945 9.52057,-10.47945c5.24877,0 9.51879,4.70106 9.51879,10.47945c0,5.77937 -4.27002,10.47945 -9.51879,10.47945z" id="svg_8"/>
  </g>
 </g>

</svg>